<?xml version="1.0" encoding="UTF-8" standalone="no"?>
<!DOCTYPE svg PUBLIC "-//W3C//DTD SVG 1.1//EN"
 "http://www.w3.org/Graphics/SVG/1.1/DTD/svg11.dtd">
<!-- Generated by graphviz version 14.1.2 (20260124.0452)
 -->
<!-- Title: G Pages: 1 -->
<svg width="787pt" height="319pt"
 viewBox="0.00 0.00 787.00 319.00" xmlns="http://www.w3.org/2000/svg" xmlns:xlink="http://www.w3.org/1999/xlink">
<g id="graph0" class="graph" transform="scale(1 1) rotate(0) translate(21.6 297.35)">
<title>G</title>
<polygon fill="#111111" stroke="none" points="-21.6,21.6 -21.6,-297.35 765.1,-297.35 765.1,21.6 -21.6,21.6"/>
<!-- context/AuthContext.jsx -->
<g id="node1" class="node">
<title>context/AuthContext.jsx</title>
<path fill="none" stroke="#c6c5fe" d="M347.33,-23.75C347.33,-23.75 205.42,-23.75 205.42,-23.75 201.46,-23.75 197.5,-19.79 197.5,-15.83 197.5,-15.83 197.5,-7.92 197.5,-7.92 197.5,-3.96 201.46,0 205.42,0 205.42,0 347.33,0 347.33,0 351.29,0 355.25,-3.96 355.25,-7.92 355.25,-7.92 355.25,-15.83 355.25,-15.83 355.25,-19.79 351.29,-23.75 347.33,-23.75"/>
<text xml:space="preserve" text-anchor="middle" x="276.38" y="-6.45" font-family="Arial" font-size="14.00" fill="#c6c5fe">context/AuthContext.jsx</text>
</g>
<!-- hooks/useLocalStorage.js -->
<g id="node2" class="node">
<title>hooks/useLocalStorage.js</title>
<path fill="none" stroke="#cfffac" d="M561.33,-65.75C561.33,-65.75 406.67,-65.75 406.67,-65.75 402.71,-65.75 398.75,-61.79 398.75,-57.83 398.75,-57.83 398.75,-49.92 398.75,-49.92 398.75,-45.96 402.71,-42 406.67,-42 406.67,-42 561.33,-42 561.33,-42 565.29,-42 569.25,-45.96 569.25,-49.92 569.25,-49.92 569.25,-57.83 569.25,-57.83 569.25,-61.79 565.29,-65.75 561.33,-65.75"/>
<text xml:space="preserve" text-anchor="middle" x="484" y="-48.45" font-family="Arial" font-size="14.00" fill="#cfffac">hooks/useLocalStorage.js</text>
</g>
<!-- context/AuthContext.jsx&#45;&gt;hooks/useLocalStorage.js -->
<g id="edge1" class="edge">
<title>context/AuthContext.jsx&#45;&gt;hooks/useLocalStorage.js</title>
<path fill="none" stroke="#757575" d="M337.96,-24.25C360.97,-28.95 387.39,-34.35 411.33,-39.24"/>
<polygon fill="#757575" stroke="#757575" points="410.51,-42.64 421.01,-41.21 411.92,-35.78 410.51,-42.64"/>
</g>
<!-- services/authService.js -->
<g id="node3" class="node">
<title>services/authService.js</title>
<path fill="none" stroke="#cfffac" d="M553.08,-23.75C553.08,-23.75 414.92,-23.75 414.92,-23.75 410.96,-23.75 407,-19.79 407,-15.83 407,-15.83 407,-7.92 407,-7.92 407,-3.96 410.96,0 414.92,0 414.92,0 553.08,0 553.08,0 557.04,0 561,-3.96 561,-7.92 561,-7.92 561,-15.83 561,-15.83 561,-19.79 557.04,-23.75 553.08,-23.75"/>
<text xml:space="preserve" text-anchor="middle" x="484" y="-6.45" font-family="Arial" font-size="14.00" fill="#cfffac">services/authService.js</text>
</g>
<!-- context/AuthContext.jsx&#45;&gt;services/authService.js -->
<g id="edge2" class="edge">
<title>context/AuthContext.jsx&#45;&gt;services/authService.js</title>
<path fill="none" stroke="#757575" d="M355.7,-11.88C368.6,-11.88 382.05,-11.88 395.17,-11.88"/>
<polygon fill="#757575" stroke="#757575" points="395.08,-15.38 405.08,-11.88 395.08,-8.38 395.08,-15.38"/>
</g>
<!-- context/ChatContext.jsx -->
<g id="node4" class="node">
<title>context/ChatContext.jsx</title>
<path fill="none" stroke="#c6c5fe" d="M347.71,-107.75C347.71,-107.75 205.04,-107.75 205.04,-107.75 201.08,-107.75 197.12,-103.79 197.12,-99.83 197.12,-99.83 197.12,-91.92 197.12,-91.92 197.12,-87.96 201.08,-84 205.04,-84 205.04,-84 347.71,-84 347.71,-84 351.67,-84 355.62,-87.96 355.62,-91.92 355.62,-91.92 355.62,-99.83 355.62,-99.83 355.62,-103.79 351.67,-107.75 347.71,-107.75"/>
<text xml:space="preserve" text-anchor="middle" x="276.38" y="-90.45" font-family="Arial" font-size="14.00" fill="#c6c5fe">context/ChatContext.jsx</text>
</g>
<!-- services/chatService.js -->
<g id="node5" class="node">
<title>services/chatService.js</title>
<path fill="none" stroke="#c6c5fe" d="M552.71,-107.75C552.71,-107.75 415.29,-107.75 415.29,-107.75 411.33,-107.75 407.38,-103.79 407.38,-99.83 407.38,-99.83 407.38,-91.92 407.38,-91.92 407.38,-87.96 411.33,-84 415.29,-84 415.29,-84 552.71,-84 552.71,-84 556.67,-84 560.62,-87.96 560.62,-91.92 560.62,-91.92 560.62,-99.83 560.62,-99.83 560.62,-103.79 556.67,-107.75 552.71,-107.75"/>
<text xml:space="preserve" text-anchor="middle" x="484" y="-90.45" font-family="Arial" font-size="14.00" fill="#c6c5fe">services/chatService.js</text>
</g>
<!-- context/ChatContext.jsx&#45;&gt;services/chatService.js -->
<g id="edge3" class="edge">
<title>context/ChatContext.jsx&#45;&gt;services/chatService.js</title>
<path fill="none" stroke="#757575" d="M355.99,-95.88C368.97,-95.88 382.49,-95.88 395.67,-95.88"/>
<polygon fill="#757575" stroke="#757575" points="395.62,-99.38 405.62,-95.88 395.62,-92.38 395.62,-99.38"/>
</g>
<!-- data/chatbotFAQs.js -->
<g id="node8" class="node">
<title>data/chatbotFAQs.js</title>
<path fill="none" stroke="#cfffac" d="M735.58,-128.75C735.58,-128.75 613.17,-128.75 613.17,-128.75 609.21,-128.75 605.25,-124.79 605.25,-120.83 605.25,-120.83 605.25,-112.92 605.25,-112.92 605.25,-108.96 609.21,-105 613.17,-105 613.17,-105 735.58,-105 735.58,-105 739.54,-105 743.5,-108.96 743.5,-112.92 743.5,-112.92 743.5,-120.83 743.5,-120.83 743.5,-124.79 739.54,-128.75 735.58,-128.75"/>
<text xml:space="preserve" text-anchor="middle" x="674.38" y="-111.45" font-family="Arial" font-size="14.00" fill="#cfffac">data/chatbotFAQs.js</text>
</g>
<!-- services/chatService.js&#45;&gt;data/chatbotFAQs.js -->
<g id="edge8" class="edge">
<title>services/chatService.js&#45;&gt;data/chatbotFAQs.js</title>
<path fill="none" stroke="#757575" d="M561.08,-104.36C571.84,-105.56 582.93,-106.79 593.75,-108"/>
<polygon fill="#757575" stroke="#757575" points="593.09,-111.45 603.41,-109.08 593.86,-104.49 593.09,-111.45"/>
</g>
<!-- context/ThemeContext.jsx -->
<g id="node6" class="node">
<title>context/ThemeContext.jsx</title>
<path fill="none" stroke="#c6c5fe" d="M354.83,-65.75C354.83,-65.75 197.92,-65.75 197.92,-65.75 193.96,-65.75 190,-61.79 190,-57.83 190,-57.83 190,-49.92 190,-49.92 190,-45.96 193.96,-42 197.92,-42 197.92,-42 354.83,-42 354.83,-42 358.79,-42 362.75,-45.96 362.75,-49.92 362.75,-49.92 362.75,-57.83 362.75,-57.83 362.75,-61.79 358.79,-65.75 354.83,-65.75"/>
<text xml:space="preserve" text-anchor="middle" x="276.38" y="-48.45" font-family="Arial" font-size="14.00" fill="#c6c5fe">context/ThemeContext.jsx</text>
</g>
<!-- context/ThemeContext.jsx&#45;&gt;hooks/useLocalStorage.js -->
<g id="edge4" class="edge">
<title>context/ThemeContext.jsx&#45;&gt;hooks/useLocalStorage.js</title>
<path fill="none" stroke="#757575" d="M363.09,-53.88C371.03,-53.88 379.11,-53.88 387.13,-53.88"/>
<polygon fill="#757575" stroke="#757575" points="386.9,-57.38 396.9,-53.88 386.9,-50.38 386.9,-57.38"/>
</g>
<!-- data/DashboardData.js -->
<g id="node7" class="node">
<title>data/DashboardData.js</title>
<path fill="none" stroke="#cfffac" d="M146.08,-149.75C146.08,-149.75 7.92,-149.75 7.92,-149.75 3.96,-149.75 0,-145.79 0,-141.83 0,-141.83 0,-133.92 0,-133.92 0,-129.96 3.96,-126 7.92,-126 7.92,-126 146.08,-126 146.08,-126 150.04,-126 154,-129.96 154,-133.92 154,-133.92 154,-141.83 154,-141.83 154,-145.79 150.04,-149.75 146.08,-149.75"/>
<text xml:space="preserve" text-anchor="middle" x="77" y="-132.45" font-family="Arial" font-size="14.00" fill="#cfffac">data/DashboardData.js</text>
</g>
<!-- data/doctorsData.js -->
<g id="node9" class="node">
<title>data/doctorsData.js</title>
<path fill="none" stroke="#cfffac" d="M135.21,-191.75C135.21,-191.75 18.79,-191.75 18.79,-191.75 14.83,-191.75 10.88,-187.79 10.88,-183.83 10.88,-183.83 10.88,-175.92 10.88,-175.92 10.88,-171.96 14.83,-168 18.79,-168 18.79,-168 135.21,-168 135.21,-168 139.17,-168 143.12,-171.96 143.12,-175.92 143.12,-175.92 143.12,-183.83 143.12,-183.83 143.12,-187.79 139.17,-191.75 135.21,-191.75"/>
<text xml:space="preserve" text-anchor="middle" x="77" y="-174.45" font-family="Arial" font-size="14.00" fill="#cfffac">data/doctorsData.js</text>
</g>
<!-- hooks/useAuth.js -->
<g id="node10" class="node">
<title>hooks/useAuth.js</title>
<path fill="none" stroke="#c6c5fe" d="M128.46,-23.75C128.46,-23.75 25.54,-23.75 25.54,-23.75 21.58,-23.75 17.62,-19.79 17.62,-15.83 17.62,-15.83 17.62,-7.92 17.62,-7.92 17.62,-3.96 21.58,0 25.54,0 25.54,0 128.46,0 128.46,0 132.42,0 136.38,-3.96 136.38,-7.92 136.38,-7.92 136.38,-15.83 136.38,-15.83 136.38,-19.79 132.42,-23.75 128.46,-23.75"/>
<text xml:space="preserve" text-anchor="middle" x="77" y="-6.45" font-family="Arial" font-size="14.00" fill="#c6c5fe">hooks/useAuth.js</text>
</g>
<!-- hooks/useAuth.js&#45;&gt;context/AuthContext.jsx -->
<g id="edge5" class="edge">
<title>hooks/useAuth.js&#45;&gt;context/AuthContext.jsx</title>
<path fill="none" stroke="#757575" d="M136.68,-11.88C152.1,-11.88 169.09,-11.88 185.73,-11.88"/>
<polygon fill="#757575" stroke="#757575" points="185.66,-15.38 195.66,-11.88 185.66,-8.38 185.66,-15.38"/>
</g>
<!-- hooks/useChat.js -->
<g id="node11" class="node">
<title>hooks/useChat.js</title>
<path fill="none" stroke="#c6c5fe" d="M128.83,-107.75C128.83,-107.75 25.17,-107.75 25.17,-107.75 21.21,-107.75 17.25,-103.79 17.25,-99.83 17.25,-99.83 17.25,-91.92 17.25,-91.92 17.25,-87.96 21.21,-84 25.17,-84 25.17,-84 128.83,-84 128.83,-84 132.79,-84 136.75,-87.96 136.75,-91.92 136.75,-91.92 136.75,-99.83 136.75,-99.83 136.75,-103.79 132.79,-107.75 128.83,-107.75"/>
<text xml:space="preserve" text-anchor="middle" x="77" y="-90.45" font-family="Arial" font-size="14.00" fill="#c6c5fe">hooks/useChat.js</text>
</g>
<!-- hooks/useChat.js&#45;&gt;context/ChatContext.jsx -->
<g id="edge6" class="edge">
<title>hooks/useChat.js&#45;&gt;context/ChatContext.jsx</title>
<path fill="none" stroke="#757575" d="M137.22,-95.88C152.44,-95.88 169.16,-95.88 185.56,-95.88"/>
<polygon fill="#757575" stroke="#757575" points="185.32,-99.38 195.32,-95.88 185.32,-92.38 185.32,-99.38"/>
</g>
<!-- hooks/useTheme.js -->
<g id="node12" class="node">
<title>hooks/useTheme.js</title>
<path fill="none" stroke="#c6c5fe" d="M135.96,-65.75C135.96,-65.75 18.04,-65.75 18.04,-65.75 14.08,-65.75 10.12,-61.79 10.12,-57.83 10.12,-57.83 10.12,-49.92 10.12,-49.92 10.12,-45.96 14.08,-42 18.04,-42 18.04,-42 135.96,-42 135.96,-42 139.92,-42 143.88,-45.96 143.88,-49.92 143.88,-49.92 143.88,-57.83 143.88,-57.83 143.88,-61.79 139.92,-65.75 135.96,-65.75"/>
<text xml:space="preserve" text-anchor="middle" x="77" y="-48.45" font-family="Arial" font-size="14.00" fill="#c6c5fe">hooks/useTheme.js</text>
</g>
<!-- hooks/useTheme.js&#45;&gt;context/ThemeContext.jsx -->
<g id="edge7" class="edge">
<title>hooks/useTheme.js&#45;&gt;context/ThemeContext.jsx</title>
<path fill="none" stroke="#757575" d="M144.27,-53.88C155.19,-53.88 166.71,-53.88 178.19,-53.88"/>
<polygon fill="#757575" stroke="#757575" points="178.14,-57.38 188.14,-53.88 178.14,-50.38 178.14,-57.38"/>
</g>
<!-- services/api.js -->
<g id="node13" class="node">
<title>services/api.js</title>
<path fill="none" stroke="#cfffac" d="M119.46,-233.75C119.46,-233.75 34.54,-233.75 34.54,-233.75 30.58,-233.75 26.62,-229.79 26.62,-225.83 26.62,-225.83 26.62,-217.92 26.62,-217.92 26.62,-213.96 30.58,-210 34.54,-210 34.54,-210 119.46,-210 119.46,-210 123.42,-210 127.38,-213.96 127.38,-217.92 127.38,-217.92 127.38,-225.83 127.38,-225.83 127.38,-229.79 123.42,-233.75 119.46,-233.75"/>
<text xml:space="preserve" text-anchor="middle" x="77" y="-216.45" font-family="Arial" font-size="14.00" fill="#cfffac">services/api.js</text>
</g>
<!-- services/chatServices.js -->
<g id="node14" class="node">
<title>services/chatServices.js</title>
<path fill="none" stroke="#c6c5fe" d="M556.08,-149.75C556.08,-149.75 411.92,-149.75 411.92,-149.75 407.96,-149.75 404,-145.79 404,-141.83 404,-141.83 404,-133.92 404,-133.92 404,-129.96 407.96,-126 411.92,-126 411.92,-126 556.08,-126 556.08,-126 560.04,-126 564,-129.96 564,-133.92 564,-133.92 564,-141.83 564,-141.83 564,-145.79 560.04,-149.75 556.08,-149.75"/>
<text xml:space="preserve" text-anchor="middle" x="484" y="-132.45" font-family="Arial" font-size="14.00" fill="#c6c5fe">services/chatServices.js</text>
</g>
<!-- services/chatServices.js&#45;&gt;data/chatbotFAQs.js -->
<g id="edge9" class="edge">
<title>services/chatServices.js&#45;&gt;data/chatbotFAQs.js</title>
<path fill="none" stroke="#757575" d="M564.34,-129.03C574.03,-127.95 583.93,-126.85 593.62,-125.77"/>
<polygon fill="#757575" stroke="#757575" points="593.81,-129.27 603.37,-124.68 593.04,-122.31 593.81,-129.27"/>
</g>
<!-- utils/validators.js -->
<g id="node15" class="node">
<title>utils/validators.js</title>
<path fill="none" stroke="#cfffac" d="M126.58,-275.75C126.58,-275.75 27.42,-275.75 27.42,-275.75 23.46,-275.75 19.5,-271.79 19.5,-267.83 19.5,-267.83 19.5,-259.92 19.5,-259.92 19.5,-255.96 23.46,-252 27.42,-252 27.42,-252 126.58,-252 126.58,-252 130.54,-252 134.5,-255.96 134.5,-259.92 134.5,-259.92 134.5,-267.83 134.5,-267.83 134.5,-271.79 130.54,-275.75 126.58,-275.75"/>
<text xml:space="preserve" text-anchor="middle" x="77" y="-258.45" font-family="Arial" font-size="14.00" fill="#cfffac">utils/validators.js</text>
</g>
</g>
</svg>
